<svg width="115" height="19" viewBox="0 0 115 19" fill="none" xmlns="http://www.w3.org/2000/svg">
<path d="M10.056 18.336C8.296 18.336 6.712 17.968 5.304 17.232C3.912 16.48 2.816 15.44 2.016 14.112C1.216 12.784 0.816 11.28 0.816 9.6C0.816 7.92 1.216 6.416 2.016 5.088C2.816 3.76 3.912 2.728 5.304 1.992C6.712 1.24 8.296 0.863999 10.056 0.863999C11.592 0.863999 12.976 1.136 14.208 1.68C15.44 2.224 16.464 3.008 17.28 4.032L14.256 6.768C13.168 5.456 11.848 4.8 10.296 4.8C9.384 4.8 8.568 5 7.848 5.4C7.144 5.8 6.592 6.368 6.192 7.104C5.808 7.824 5.616 8.656 5.616 9.6C5.616 10.544 5.808 11.384 6.192 12.12C6.592 12.84 7.144 13.4 7.848 13.8C8.568 14.2 9.384 14.4 10.296 14.4C11.848 14.4 13.168 13.744 14.256 12.432L17.28 15.168C16.464 16.192 15.44 16.976 14.208 17.52C12.976 18.064 11.592 18.336 10.056 18.336ZM24.6799 4.776C26.8399 4.776 28.4879 5.272 29.6239 6.264C30.7599 7.24 31.3279 8.744 31.3279 10.776V18H27.0799V16.32C26.4239 17.584 25.1439 18.216 23.2399 18.216C22.2319 18.216 21.3599 18.04 20.6239 17.688C19.8879 17.336 19.3279 16.864 18.9439 16.272C18.5759 15.664 18.3919 14.976 18.3919 14.208C18.3919 12.976 18.8639 12.024 19.8079 11.352C20.7519 10.664 22.2079 10.32 24.1759 10.32H26.7679C26.6879 8.944 25.7679 8.256 24.0079 8.256C23.3839 8.256 22.7519 8.36 22.1119 8.568C21.4719 8.76 20.9279 9.032 20.4799 9.384L18.9439 6.288C19.6639 5.808 20.5359 5.44 21.5599 5.184C22.5999 4.912 23.6399 4.776 24.6799 4.776ZM24.5119 15.336C25.0399 15.336 25.5039 15.208 25.9039 14.952C26.3039 14.696 26.5919 14.32 26.7679 13.824V12.696H24.7999C23.4719 12.696 22.8079 13.136 22.8079 14.016C22.8079 14.416 22.9599 14.736 23.2639 14.976C23.5679 15.216 23.9839 15.336 24.5119 15.336ZM34.2062 0.191999H38.7662V18H34.2062V0.191999ZM55.0256 11.52C55.0256 11.552 55.0016 11.928 54.9536 12.648H45.4976C45.6896 13.32 46.0576 13.84 46.6016 14.208C47.1616 14.56 47.8576 14.736 48.6896 14.736C49.3136 14.736 49.8496 14.648 50.2976 14.472C50.7616 14.296 51.2256 14.008 51.6896 13.608L54.0896 16.104C52.8256 17.512 50.9776 18.216 48.5456 18.216C47.0256 18.216 45.6896 17.928 44.5376 17.352C43.3856 16.776 42.4896 15.976 41.8496 14.952C41.2256 13.928 40.9136 12.768 40.9136 11.472C40.9136 10.192 41.2176 9.048 41.8256 8.04C42.4496 7.016 43.3056 6.216 44.3936 5.64C45.4816 5.064 46.7056 4.776 48.0656 4.776C49.3616 4.776 50.5376 5.048 51.5936 5.592C52.6496 6.12 53.4816 6.896 54.0896 7.92C54.7136 8.928 55.0256 10.128 55.0256 11.52ZM48.0896 8.016C47.3856 8.016 46.7936 8.216 46.3136 8.616C45.8496 9.016 45.5536 9.56 45.4256 10.248H50.7536C50.6256 9.56 50.3216 9.016 49.8416 8.616C49.3776 8.216 48.7936 8.016 48.0896 8.016ZM65.6001 4.776C67.2161 4.776 68.5121 5.256 69.4881 6.216C70.4801 7.176 70.9761 8.624 70.9761 10.56V18H66.4161V11.304C66.4161 9.528 65.7041 8.64 64.2801 8.64C63.4961 8.64 62.8641 8.896 62.3841 9.408C61.9201 9.92 61.6881 10.688 61.6881 11.712V18H57.1281V4.992H61.4721V6.408C61.9841 5.88 62.5921 5.48 63.2961 5.208C64.0001 4.92 64.7681 4.776 65.6001 4.776ZM87.8505 0.191999V18H83.5065V16.704C82.6585 17.712 81.3865 18.216 79.6905 18.216C78.5065 18.216 77.4265 17.944 76.4505 17.4C75.4745 16.84 74.6985 16.048 74.1225 15.024C73.5625 14 73.2825 12.816 73.2825 11.472C73.2825 10.128 73.5625 8.952 74.1225 7.944C74.6985 6.92 75.4745 6.136 76.4505 5.592C77.4265 5.048 78.5065 4.776 79.6905 4.776C81.2425 4.776 82.4425 5.224 83.2905 6.12V0.191999H87.8505ZM80.6505 14.592C81.4345 14.592 82.0825 14.32 82.5945 13.776C83.1065 13.216 83.3625 12.448 83.3625 11.472C83.3625 10.512 83.1065 9.76 82.5945 9.216C82.0985 8.672 81.4505 8.4 80.6505 8.4C79.8505 8.4 79.1945 8.672 78.6825 9.216C78.1705 9.76 77.9145 10.512 77.9145 11.472C77.9145 12.448 78.1705 13.216 78.6825 13.776C79.1945 14.32 79.8505 14.592 80.6505 14.592ZM96.3283 4.776C98.4883 4.776 100.136 5.272 101.272 6.264C102.408 7.24 102.976 8.744 102.976 10.776V18H98.7283V16.32C98.0723 17.584 96.7923 18.216 94.8883 18.216C93.8803 18.216 93.0083 18.04 92.2723 17.688C91.5363 17.336 90.9763 16.864 90.5923 16.272C90.2243 15.664 90.0403 14.976 90.0403 14.208C90.0403 12.976 90.5123 12.024 91.4563 11.352C92.4003 10.664 93.8563 10.32 95.8243 10.32H98.4163C98.3363 8.944 97.4163 8.256 95.6563 8.256C95.0323 8.256 94.4003 8.36 93.7603 8.568C93.1203 8.76 92.5763 9.032 92.1283 9.384L90.5923 6.288C91.3123 5.808 92.1843 5.44 93.2083 5.184C94.2483 4.912 95.2883 4.776 96.3283 4.776ZM96.1603 15.336C96.6883 15.336 97.1523 15.208 97.5523 14.952C97.9523 14.696 98.2403 14.32 98.4163 13.824V12.696H96.4483C95.1203 12.696 94.4563 13.136 94.4563 14.016C94.4563 14.416 94.6083 14.736 94.9123 14.976C95.2163 15.216 95.6323 15.336 96.1603 15.336ZM110.199 6.552C110.663 5.96 111.263 5.52 111.999 5.232C112.751 4.928 113.607 4.776 114.567 4.776V8.88C114.151 8.832 113.807 8.808 113.535 8.808C112.559 8.808 111.791 9.072 111.231 9.6C110.687 10.128 110.415 10.936 110.415 12.024V18H105.855V4.992H110.199V6.552Z" fill="#747978"/>
</svg>
