<svg width="151" height="30" viewBox="0 0 151 30" fill="none" xmlns="http://www.w3.org/2000/svg">
<path d="M48.548 11.298H57.41V12.446H58.964V9.996H53.826V9.142H52.16V9.996H47.05V12.446H48.548V11.298ZM50.018 18.928H55.996V19.348H50.018V18.928ZM50.018 17.668H55.996V18.088H50.018V17.668ZM50.018 16.436H55.996V16.842H50.018V16.436ZM57.69 20.23V15.568H48.408V20.23H50.424C49.43 20.608 47.946 20.958 46.686 21.14C47.008 21.42 47.456 21.91 47.68 22.218C49.332 21.966 51.278 21.434 52.412 20.79L51.586 20.23H54.316L53.588 20.832C55.184 21.294 56.808 21.84 57.746 22.218L59.188 21.294C58.32 21 57.032 20.594 55.744 20.23H57.69ZM53.434 14.322L53.49 13.888H55.38L55.338 14.322H53.434ZM50.34 13.888H52.104L52.048 14.322H50.284L50.34 13.888ZM52.258 12.586L52.216 13.02H50.452L50.508 12.586H52.258ZM55.45 13.02H53.588L53.63 12.586H55.492L55.45 13.02ZM56.99 12.866L57.102 11.746H49.15L49.01 12.866H46.812V14.042H48.856L48.716 15.162H56.78L56.892 14.042H59.216V12.866H56.99ZM64.158 12.894C62.814 13.356 61.442 13.832 60.532 14.112L61.106 15.47C62.1 15.064 63.29 14.574 64.41 14.084L64.158 12.894ZM70.052 18.424H64.06V17.612H70.052V18.424ZM64.06 20.482V19.67H70.052V20.482H64.06ZM66.398 15.12C66.482 14.938 66.51 14.7 66.51 14.392V9.758H60.896V11.046H61.96L61.26 11.886C61.89 12.222 62.674 12.768 63.024 13.16L63.864 12.096C63.528 11.774 62.87 11.354 62.31 11.046H65.012V14.378C65.012 14.518 64.956 14.574 64.802 14.574C64.648 14.574 64.102 14.574 63.626 14.56C63.794 14.882 63.99 15.372 64.046 15.736C64.9 15.736 65.516 15.736 65.95 15.554L65.992 15.54C65.908 15.792 65.81 16.086 65.698 16.352H62.408V22.246H64.06V21.742H70.052V22.246H71.788V16.352H67.35C67.532 16.044 67.728 15.694 67.896 15.33L66.398 15.12ZM72.838 9.758H67.266V11.046H68.176L67.504 11.872C68.106 12.194 68.876 12.698 69.268 13.09C68.358 13.398 67.504 13.664 66.86 13.86L67.42 15.106C68.456 14.728 69.744 14.252 70.948 13.79L70.696 12.6C70.262 12.754 69.828 12.894 69.408 13.048L70.164 12.04C69.828 11.746 69.184 11.34 68.61 11.046H71.284V14.336C71.284 14.49 71.228 14.532 71.046 14.546C70.878 14.546 70.262 14.546 69.73 14.518C69.912 14.868 70.108 15.386 70.178 15.778C71.088 15.792 71.76 15.778 72.222 15.568C72.698 15.358 72.838 15.022 72.838 14.35V9.758ZM85.858 9.702C85.662 10.164 85.27 10.808 84.948 11.242L85.956 11.662C86.32 11.284 86.796 10.724 87.272 10.192L85.858 9.702ZM81.658 11.914C82.232 11.452 82.568 10.78 82.806 10.108L81.728 9.702C81.546 10.29 81.154 10.92 80.622 11.27L81.658 11.914ZM79.768 11.592C80.118 11.242 80.552 10.71 81 10.178L79.67 9.744C79.474 10.164 79.11 10.78 78.816 11.2L79.768 11.592ZM75.792 9.688C75.596 10.29 75.204 10.92 74.7 11.284L75.708 11.914C76.282 11.466 76.618 10.752 76.842 10.08L75.792 9.688ZM84.472 20.72H77.78V19.964H84.472V20.72ZM78.746 16.478H83.114V17.164H78.746V16.478ZM84.766 18.186V15.47H77.206V18.186H80.104C80.062 18.396 80.006 18.62 79.964 18.816H76.212V22.218H77.78V21.896H84.472V22.204H86.11V18.816H81.602C81.686 18.62 81.784 18.41 81.882 18.186H84.766ZM81.938 13.65C82.806 13.37 83.408 13.006 83.842 12.544C84.5 12.894 85.214 13.3 85.76 13.65H81.938ZM83.338 9.142C83.24 11.13 82.988 12.068 80.538 12.6C80.804 12.838 81.112 13.3 81.28 13.65H76.114C76.884 13.356 77.43 12.992 77.822 12.544C78.438 12.922 79.068 13.356 79.432 13.636L80.44 12.614C79.978 12.292 79.152 11.802 78.466 11.41C78.676 10.78 78.774 10.024 78.816 9.142H77.374C77.262 11.144 76.968 12.152 74.588 12.712C74.798 12.936 75.092 13.314 75.26 13.65H75.008V16.352H76.618V14.91H85.34V16.352H87.02V13.65H86.446L87.174 12.81C86.544 12.404 85.396 11.802 84.5 11.368C84.71 10.738 84.794 10.01 84.836 9.142H83.338ZM99.494 11.48V12.096H98.528V11.48H99.494ZM99.494 13.972H98.528V13.314H99.494V13.972ZM97.03 12.096H94.37V13.314H97.03V13.972H95.28V15.176H97.03V15.834H95.112V17.038H97.03V17.724H94.762V18.928H97.03V20.202H98.528V18.928H101.314V17.724H98.528V17.038H100.978V15.834H98.528V15.176H100.894V13.314H101.58V12.096H100.894V10.276H98.528V9.24H97.03V10.276H95.28V11.48H97.03V12.096ZM91.206 12.208C91.416 11.732 91.612 11.256 91.794 10.766V11.606H92.914C92.452 12.796 91.822 14.336 91.276 15.554L92.634 15.862L92.886 15.288H93.558C93.446 16.184 93.292 17.01 93.068 17.766C92.886 17.304 92.732 16.772 92.606 16.156L91.346 16.52C91.612 17.738 91.962 18.69 92.368 19.446C92.046 20.034 91.654 20.51 91.206 20.846V12.208ZM94.174 14.056L93.922 14.084H93.404C93.936 12.824 94.454 11.522 94.832 10.472L93.796 10.206L93.558 10.262H91.976C92.046 10.052 92.116 9.842 92.186 9.632L90.702 9.184C90.156 11.102 89.232 13.006 88.196 14.252C88.448 14.686 88.812 15.652 88.924 16.058C89.204 15.722 89.484 15.33 89.75 14.924V22.19H91.206V21.07C91.5 21.392 91.836 21.868 91.99 22.19C92.508 21.784 92.956 21.294 93.334 20.706C94.412 21.728 95.84 22.022 97.674 22.022H101.174C101.244 21.588 101.468 20.888 101.692 20.524C100.908 20.552 98.402 20.552 97.758 20.552C96.218 20.538 94.958 20.286 94.034 19.334C94.58 17.976 94.902 16.282 95.042 14.21L94.174 14.056ZM110.75 15.386H112.682V16.072H110.75V15.386ZM110.75 13.58H112.682V14.224H110.75V13.58ZM114.264 17.178V15.386H115.51V14.224H114.264V12.474H110.75V11.788H115.356V10.332H110.302V9.156H108.566V10.332H103.568V14.392C103.568 16.45 103.484 19.362 102.336 21.364C102.7 21.532 103.4 21.994 103.68 22.274C104.94 20.104 105.15 16.66 105.15 14.392V11.788H109.14V12.474H106.214V13.58H109.14V14.224H105.416V15.386H109.14V16.072H106.06V17.178H106.256L105.402 18.018C106.088 18.396 106.942 18.97 107.376 19.362L108.328 18.382C107.894 18.004 107.054 17.514 106.382 17.178H109.14V20.566C109.14 20.79 109.07 20.86 108.818 20.86C108.636 20.874 108.062 20.874 107.474 20.846C107.894 20.65 108.328 20.454 108.748 20.244L108.454 19.054C107.11 19.572 105.738 20.09 104.814 20.37L105.584 21.7C106.06 21.504 106.578 21.266 107.11 21.014C107.292 21.406 107.474 21.882 107.53 22.232C108.678 22.232 109.476 22.218 110.008 21.994C110.554 21.77 110.75 21.406 110.75 20.58V19.222C111.59 20.524 112.752 21.504 114.278 22.064C114.502 21.644 114.95 21.042 115.286 20.72C114.334 20.454 113.522 20.02 112.85 19.46C113.522 19.11 114.278 18.662 114.964 18.214L113.746 17.234C113.284 17.626 112.598 18.144 111.954 18.536C111.632 18.116 111.366 17.668 111.156 17.178H114.264ZM127.76 15.918C127.186 16.45 126.346 17.08 125.562 17.598C125.212 17.024 124.946 16.408 124.722 15.722H129.174V14.308H123.798V13.524H128.18V12.194H123.798V11.48H128.726V10.066H123.798V9.142H122.132V10.066H117.316V11.48H122.132V12.194H117.974V13.524H122.132V14.308H116.798V15.722H121.054C119.738 16.632 117.946 17.43 116.28 17.864C116.63 18.2 117.106 18.83 117.344 19.208C118.114 18.97 118.898 18.662 119.668 18.284V20.286C118.968 20.426 118.31 20.552 117.764 20.65L118.254 22.19C119.99 21.812 122.342 21.322 124.54 20.804L124.386 19.292C123.378 19.516 122.328 19.74 121.334 19.95V17.346C122.006 16.912 122.636 16.436 123.168 15.932C124.092 19.04 125.632 21.168 128.586 22.176C128.824 21.714 129.3 21.042 129.664 20.692C128.278 20.3 127.186 19.614 126.36 18.69C127.228 18.228 128.264 17.584 129.146 16.954L127.76 15.918Z" fill="white"/>
<g clip-path="url(#clip0)">
<path d="M37.05 26.2493H35.5846L21.3477 6.89867L24.5189 2.5891C24.8271 2.17015 24.7332 1.58363 24.3087 1.27953L22.7709 0.178551C22.3464 -0.12555 21.7526 -0.0329721 21.4439 0.386559L19 3.70824L16.5555 0.385973C16.2474 -0.0329721 15.653 -0.126136 15.2285 0.177965L13.6919 1.27953C13.2673 1.58363 13.1729 2.17015 13.4817 2.5891L16.6529 6.89867L2.41537 26.2493H0.95C0.425125 26.2493 0 26.6688 0 27.1868V29.0618C0 29.5797 0.425125 29.9992 0.95 29.9992H37.05C37.5749 29.9992 38 29.5797 38 29.0618V27.1868C38 26.6688 37.5749 26.2493 37.05 26.2493ZM19 16.8743L25.9089 26.2493H12.0911L19 16.8743Z" fill="white"/>
</g>
<defs>
<clipPath id="clip0">
<rect width="38" height="30" fill="white"/>
</clipPath>
</defs>
</svg>
