<svg width="38" height="30" viewBox="0 0 38 30" fill="none" xmlns="http://www.w3.org/2000/svg">
<g clip-path="url(#clip0)">
<path d="M37.05 26.2493H35.5846L21.3477 6.89867L24.5189 2.5891C24.8271 2.17015 24.7332 1.58363 24.3087 1.27953L22.7709 0.178551C22.3464 -0.12555 21.7526 -0.0329721 21.4439 0.386559L19 3.70824L16.5555 0.385973C16.2474 -0.0329721 15.653 -0.126136 15.2285 0.177965L13.6919 1.27953C13.2673 1.58363 13.1729 2.17015 13.4817 2.5891L16.6529 6.89867L2.41537 26.2493H0.95C0.425125 26.2493 0 26.6688 0 27.1868V29.0618C0 29.5797 0.425125 29.9992 0.95 29.9992H37.05C37.5749 29.9992 38 29.5797 38 29.0618V27.1868C38 26.6688 37.5749 26.2493 37.05 26.2493ZM19 16.8743L25.9089 26.2493H12.0911L19 16.8743Z" fill="white"/>
</g>
<defs>
<clipPath id="clip0">
<rect width="38" height="30" fill="white"/>
</clipPath>
</defs>
</svg>
