<svg width="60" height="18" viewBox="0 0 60 18" fill="none" xmlns="http://www.w3.org/2000/svg">
<path d="M0.68 0.199999H8.624C10.464 0.199999 12.096 0.543999 13.52 1.232C14.944 1.92 16.048 2.896 16.832 4.16C17.616 5.424 18.008 6.904 18.008 8.6C18.008 10.296 17.616 11.776 16.832 13.04C16.048 14.304 14.944 15.28 13.52 15.968C12.096 16.656 10.464 17 8.624 17H0.68V0.199999ZM8.432 13.208C9.872 13.208 11.024 12.8 11.888 11.984C12.768 11.168 13.208 10.04 13.208 8.6C13.208 7.16 12.768 6.032 11.888 5.216C11.024 4.4 9.872 3.992 8.432 3.992H5.432V13.208H8.432ZM25.8361 3.776C27.9961 3.776 29.6441 4.272 30.7801 5.264C31.9161 6.24 32.4841 7.744 32.4841 9.776V17H28.2361V15.32C27.5801 16.584 26.3001 17.216 24.3961 17.216C23.3881 17.216 22.5161 17.04 21.7801 16.688C21.0441 16.336 20.4841 15.864 20.1001 15.272C19.7321 14.664 19.5481 13.976 19.5481 13.208C19.5481 11.976 20.0201 11.024 20.9641 10.352C21.9081 9.664 23.3641 9.32 25.3321 9.32H27.9241C27.8441 7.944 26.9241 7.256 25.1641 7.256C24.5401 7.256 23.9081 7.36 23.2681 7.568C22.6281 7.76 22.0841 8.032 21.6361 8.384L20.1001 5.288C20.8201 4.808 21.6921 4.44 22.7161 4.184C23.7561 3.912 24.7961 3.776 25.8361 3.776ZM25.6681 14.336C26.1961 14.336 26.6601 14.208 27.0601 13.952C27.4601 13.696 27.7481 13.32 27.9241 12.824V11.696H25.9561C24.6281 11.696 23.9641 12.136 23.9641 13.016C23.9641 13.416 24.1161 13.736 24.4201 13.976C24.7241 14.216 25.1401 14.336 25.6681 14.336ZM44.3384 16.472C43.9544 16.712 43.4824 16.896 42.9224 17.024C42.3784 17.152 41.7944 17.216 41.1704 17.216C39.4744 17.216 38.1704 16.8 37.2584 15.968C36.3464 15.136 35.8904 13.896 35.8904 12.248V7.88H33.9944V4.472H35.8904V1.088H40.4504V4.472H43.4264V7.88H40.4504V12.2C40.4504 12.664 40.5704 13.032 40.8104 13.304C41.0664 13.56 41.4024 13.688 41.8184 13.688C42.3464 13.688 42.8104 13.552 43.2104 13.28L44.3384 16.472ZM59.0178 10.52C59.0178 10.552 58.9938 10.928 58.9458 11.648H49.4898C49.6818 12.32 50.0498 12.84 50.5938 13.208C51.1538 13.56 51.8498 13.736 52.6818 13.736C53.3058 13.736 53.8418 13.648 54.2898 13.472C54.7538 13.296 55.2178 13.008 55.6818 12.608L58.0818 15.104C56.8178 16.512 54.9698 17.216 52.5378 17.216C51.0178 17.216 49.6818 16.928 48.5298 16.352C47.3778 15.776 46.4818 14.976 45.8418 13.952C45.2178 12.928 44.9058 11.768 44.9058 10.472C44.9058 9.192 45.2098 8.048 45.8178 7.04C46.4418 6.016 47.2978 5.216 48.3858 4.64C49.4738 4.064 50.6978 3.776 52.0578 3.776C53.3538 3.776 54.5298 4.048 55.5858 4.592C56.6418 5.12 57.4738 5.896 58.0818 6.92C58.7058 7.928 59.0178 9.128 59.0178 10.52ZM52.0818 7.016C51.3778 7.016 50.7858 7.216 50.3058 7.616C49.8418 8.016 49.5458 8.56 49.4178 9.248H54.7458C54.6178 8.56 54.3138 8.016 53.8338 7.616C53.3698 7.216 52.7858 7.016 52.0818 7.016Z" fill="#747978"/>
</svg>
