<svg width="46" height="22" viewBox="0 0 46 22" fill="none" xmlns="http://www.w3.org/2000/svg">
<path d="M0.68 0.199999H5.432V13.232H13.448V17H0.68V0.199999ZM21.5936 17.216C20.2016 17.216 18.9456 16.928 17.8256 16.352C16.7056 15.776 15.8256 14.976 15.1856 13.952C14.5616 12.928 14.2496 11.768 14.2496 10.472C14.2496 9.192 14.5616 8.04 15.1856 7.016C15.8256 5.992 16.6976 5.2 17.8016 4.64C18.9216 4.064 20.1856 3.776 21.5936 3.776C23.0016 3.776 24.2656 4.064 25.3856 4.64C26.5056 5.2 27.3776 5.992 28.0016 7.016C28.6256 8.024 28.9376 9.176 28.9376 10.472C28.9376 11.768 28.6256 12.928 28.0016 13.952C27.3776 14.976 26.5056 15.776 25.3856 16.352C24.2656 16.928 23.0016 17.216 21.5936 17.216ZM21.5936 13.592C22.3936 13.592 23.0496 13.32 23.5616 12.776C24.0736 12.216 24.3296 11.448 24.3296 10.472C24.3296 9.512 24.0736 8.76 23.5616 8.216C23.0496 7.672 22.3936 7.4 21.5936 7.4C20.7936 7.4 20.1376 7.672 19.6256 8.216C19.1136 8.76 18.8576 9.512 18.8576 10.472C18.8576 11.448 19.1136 12.216 19.6256 12.776C20.1376 13.32 20.7936 13.592 21.5936 13.592ZM45.0419 3.992V14.624C45.0419 17.04 44.3859 18.848 43.0739 20.048C41.7619 21.264 39.8739 21.872 37.4099 21.872C36.1299 21.872 34.9299 21.728 33.8099 21.44C32.6899 21.152 31.7379 20.728 30.9539 20.168L32.6099 16.976C33.1379 17.408 33.8019 17.744 34.6019 17.984C35.4179 18.24 36.2179 18.368 37.0019 18.368C38.2019 18.368 39.0819 18.104 39.6419 17.576C40.2019 17.048 40.4819 16.264 40.4819 15.224V14.792C39.6019 15.816 38.3139 16.328 36.6179 16.328C35.4659 16.328 34.4019 16.072 33.4259 15.56C32.4499 15.032 31.6739 14.296 31.0979 13.352C30.5219 12.392 30.2339 11.288 30.2339 10.04C30.2339 8.808 30.5219 7.72 31.0979 6.776C31.6739 5.816 32.4499 5.08 33.4259 4.568C34.4019 4.04 35.4659 3.776 36.6179 3.776C38.4739 3.776 39.8339 4.376 40.6979 5.576V3.992H45.0419ZM37.6979 12.704C38.5139 12.704 39.1859 12.456 39.7139 11.96C40.2579 11.464 40.5299 10.824 40.5299 10.04C40.5299 9.256 40.2659 8.624 39.7379 8.144C39.2099 7.648 38.5299 7.4 37.6979 7.4C36.8659 7.4 36.1779 7.648 35.6339 8.144C35.1059 8.624 34.8419 9.256 34.8419 10.04C34.8419 10.824 35.1139 11.464 35.6579 11.96C36.2019 12.456 36.8819 12.704 37.6979 12.704Z" fill="#747978"/>
</svg>
