<svg xmlns="http://www.w3.org/2000/svg" xmlns:xlink="http://www.w3.org/1999/xlink" width="542" height="566" viewBox="0 0 542 566">
  <defs>
    <clipPath id="clip-NO">
      <rect width="542" height="566"/>
    </clipPath>
  </defs>
  <g id="NO" clip-path="url(#clip-NO)">
    <path id="Exclusion_1" data-name="Exclusion 1" d="M257.5,515a259.406,259.406,0,0,1-51.9-5.232,256.091,256.091,0,0,1-92.075-38.745A258.252,258.252,0,0,1,20.236,357.731a256.206,256.206,0,0,1-15-48.335,260.013,260.013,0,0,1,0-103.791,256.089,256.089,0,0,1,38.745-92.075A258.251,258.251,0,0,1,157.269,20.236a256.21,256.21,0,0,1,48.335-15,260.013,260.013,0,0,1,103.791,0,256.089,256.089,0,0,1,92.076,38.745,258.25,258.25,0,0,1,93.294,113.292,256.2,256.2,0,0,1,15,48.335,260.01,260.01,0,0,1,0,103.791,256.09,256.09,0,0,1-38.745,92.076,258.25,258.25,0,0,1-113.292,93.294,256.2,256.2,0,0,1-48.335,15A259.4,259.4,0,0,1,257.5,515ZM258,85a174.284,174.284,0,0,0-34.866,3.515,172.055,172.055,0,0,0-61.861,26.031,173.505,173.505,0,0,0-62.679,76.115,172.133,172.133,0,0,0-10.081,32.474,174.69,174.69,0,0,0,0,69.731,172.055,172.055,0,0,0,26.031,61.86A173.5,173.5,0,0,0,190.661,417.4a172.134,172.134,0,0,0,32.474,10.081,174.687,174.687,0,0,0,69.731,0,172.055,172.055,0,0,0,61.86-26.031A173.5,173.5,0,0,0,417.4,325.34a172.128,172.128,0,0,0,10.081-32.474,174.687,174.687,0,0,0,0-69.731,172.055,172.055,0,0,0-26.031-61.861A173.5,173.5,0,0,0,325.34,98.595a172.13,172.13,0,0,0-32.474-10.081A174.283,174.283,0,0,0,258,85Z" transform="translate(19 17)" fill="red"/>
  </g>
</svg>
