<svg width="15" height="17" viewBox="0 0 15 17" fill="none" xmlns="http://www.w3.org/2000/svg">
<path d="M14.0445 0.758667H1.37785C1.16789 0.758667 0.966522 0.846464 0.818056 1.00274C0.669589 1.15902 0.586182 1.37099 0.586182 1.592V3.75033C0.586182 4.18617 0.754807 4.6145 1.04772 4.92283L5.33618 9.437V15.7587C5.33634 15.9006 5.37092 16.0402 5.43664 16.1642C5.50237 16.2882 5.59707 16.3925 5.71178 16.4671C5.82649 16.5418 5.95741 16.5845 6.09215 16.591C6.22688 16.5975 6.36097 16.5678 6.48172 16.5045L9.64839 14.8378C9.91676 14.6962 10.0862 14.4078 10.0862 14.092V9.437L14.3746 4.92283C14.6676 4.6145 14.8362 4.18617 14.8362 3.75033V1.592C14.8362 1.37099 14.7528 1.15902 14.6043 1.00274C14.4558 0.846464 14.2545 0.758667 14.0445 0.758667V0.758667ZM8.73481 8.50283C8.66115 8.58009 8.60273 8.67192 8.56292 8.77303C8.52311 8.87414 8.5027 8.98255 8.50285 9.092V13.577L6.91952 14.4103V9.092C6.91967 8.98255 6.89925 8.87414 6.85944 8.77303C6.81963 8.67192 6.76122 8.58009 6.68756 8.50283L2.16952 3.75033V2.42533H13.2536L13.2552 3.7445L8.73481 8.50283V8.50283Z" fill="#5C6F75"/>
</svg>
