<svg width="122" height="23" viewBox="0 0 122 23" fill="none" xmlns="http://www.w3.org/2000/svg">
<path d="M7.584 18.336C6.224 18.336 4.904 18.168 3.624 17.832C2.344 17.496 1.304 17.048 0.504 16.488L2.064 12.984C2.816 13.48 3.688 13.88 4.68 14.184C5.672 14.488 6.648 14.64 7.608 14.64C9.432 14.64 10.344 14.184 10.344 13.272C10.344 12.792 10.08 12.44 9.552 12.216C9.04 11.976 8.208 11.728 7.056 11.472C5.792 11.2 4.736 10.912 3.888 10.608C3.04 10.288 2.312 9.784 1.704 9.096C1.096 8.408 0.792 7.48 0.792 6.312C0.792 5.288 1.072 4.368 1.632 3.552C2.192 2.72 3.024 2.064 4.128 1.584C5.248 1.104 6.616 0.863999 8.232 0.863999C9.336 0.863999 10.424 0.991999 11.496 1.248C12.568 1.488 13.512 1.848 14.328 2.328L12.864 5.856C11.264 4.992 9.712 4.56 8.208 4.56C7.264 4.56 6.576 4.704 6.144 4.992C5.712 5.264 5.496 5.624 5.496 6.072C5.496 6.52 5.752 6.856 6.264 7.08C6.776 7.304 7.6 7.536 8.736 7.776C10.016 8.048 11.072 8.344 11.904 8.664C12.752 8.968 13.48 9.464 14.088 10.152C14.712 10.824 15.024 11.744 15.024 12.912C15.024 13.92 14.744 14.832 14.184 15.648C13.624 16.464 12.784 17.12 11.664 17.616C10.544 18.096 9.184 18.336 7.584 18.336ZM30.4727 4.992L24.8567 18.528C24.2007 20.128 23.4007 21.248 22.4567 21.888C21.5127 22.544 20.3607 22.872 19.0007 22.872C18.3127 22.872 17.6167 22.76 16.9127 22.536C16.2247 22.328 15.6647 22.048 15.2327 21.696L16.8167 18.504C17.0727 18.744 17.3767 18.928 17.7287 19.056C18.0967 19.2 18.4647 19.272 18.8327 19.272C19.2647 19.272 19.6167 19.184 19.8887 19.008C20.1767 18.832 20.4167 18.552 20.6087 18.168L15.0407 4.992H19.7207L22.9127 12.936L26.1287 4.992H30.4727ZM48.5955 4.776C50.1955 4.776 51.4675 5.256 52.4115 6.216C53.3715 7.176 53.8515 8.624 53.8515 10.56V18H49.2915V11.304C49.2915 10.392 49.1155 9.72 48.7635 9.288C48.4275 8.856 47.9475 8.64 47.3235 8.64C46.6355 8.64 46.0835 8.88 45.6675 9.36C45.2515 9.84 45.0435 10.568 45.0435 11.544V18H40.4835V11.304C40.4835 9.528 39.8275 8.64 38.5155 8.64C37.8115 8.64 37.2515 8.88 36.8355 9.36C36.4195 9.84 36.2115 10.568 36.2115 11.544V18H31.6515V4.992H35.9955V6.36C36.4755 5.832 37.0435 5.44 37.6995 5.184C38.3715 4.912 39.0995 4.776 39.8835 4.776C40.7955 4.776 41.6115 4.944 42.3315 5.28C43.0515 5.616 43.6355 6.128 44.0835 6.816C44.5955 6.16 45.2435 5.656 46.0275 5.304C46.8115 4.952 47.6675 4.776 48.5955 4.776ZM64.9136 4.776C66.0976 4.776 67.1696 5.056 68.1296 5.616C69.1056 6.16 69.8736 6.944 70.4336 7.968C71.0096 8.976 71.2976 10.152 71.2976 11.496C71.2976 12.84 71.0096 14.024 70.4336 15.048C69.8736 16.056 69.1056 16.84 68.1296 17.4C67.1696 17.944 66.0976 18.216 64.9136 18.216C63.3936 18.216 62.1856 17.76 61.2896 16.848V22.656H56.7296V4.992H61.0736V6.288C61.9216 5.28 63.2016 4.776 64.9136 4.776ZM63.9536 14.592C64.7536 14.592 65.4096 14.32 65.9216 13.776C66.4336 13.216 66.6896 12.456 66.6896 11.496C66.6896 10.536 66.4336 9.784 65.9216 9.24C65.4096 8.68 64.7536 8.4 63.9536 8.4C63.1536 8.4 62.4976 8.68 61.9856 9.24C61.4736 9.784 61.2176 10.536 61.2176 11.496C61.2176 12.456 61.4736 13.216 61.9856 13.776C62.4976 14.32 63.1536 14.592 63.9536 14.592ZM82.3931 17.472C82.0091 17.712 81.5371 17.896 80.9771 18.024C80.4331 18.152 79.8491 18.216 79.2251 18.216C77.5291 18.216 76.2251 17.8 75.3131 16.968C74.4011 16.136 73.9451 14.896 73.9451 13.248V8.88H72.0491V5.472H73.9451V2.088H78.5051V5.472H81.4811V8.88H78.5051V13.2C78.5051 13.664 78.6251 14.032 78.8651 14.304C79.1211 14.56 79.4571 14.688 79.8731 14.688C80.4011 14.688 80.8651 14.552 81.2651 14.28L82.3931 17.472ZM90.3045 18.216C88.9125 18.216 87.6565 17.928 86.5365 17.352C85.4165 16.776 84.5365 15.976 83.8965 14.952C83.2725 13.928 82.9605 12.768 82.9605 11.472C82.9605 10.192 83.2725 9.04 83.8965 8.016C84.5365 6.992 85.4085 6.2 86.5125 5.64C87.6325 5.064 88.8965 4.776 90.3045 4.776C91.7125 4.776 92.9765 5.064 94.0965 5.64C95.2165 6.2 96.0885 6.992 96.7125 8.016C97.3365 9.024 97.6485 10.176 97.6485 11.472C97.6485 12.768 97.3365 13.928 96.7125 14.952C96.0885 15.976 95.2165 16.776 94.0965 17.352C92.9765 17.928 91.7125 18.216 90.3045 18.216ZM90.3045 14.592C91.1045 14.592 91.7605 14.32 92.2725 13.776C92.7845 13.216 93.0405 12.448 93.0405 11.472C93.0405 10.512 92.7845 9.76 92.2725 9.216C91.7605 8.672 91.1045 8.4 90.3045 8.4C89.5045 8.4 88.8485 8.672 88.3365 9.216C87.8245 9.76 87.5685 10.512 87.5685 11.472C87.5685 12.448 87.8245 13.216 88.3365 13.776C88.8485 14.32 89.5045 14.592 90.3045 14.592ZM116.705 4.776C118.305 4.776 119.577 5.256 120.521 6.216C121.481 7.176 121.961 8.624 121.961 10.56V18H117.401V11.304C117.401 10.392 117.225 9.72 116.873 9.288C116.537 8.856 116.057 8.64 115.433 8.64C114.745 8.64 114.193 8.88 113.777 9.36C113.361 9.84 113.153 10.568 113.153 11.544V18H108.593V11.304C108.593 9.528 107.937 8.64 106.625 8.64C105.921 8.64 105.361 8.88 104.945 9.36C104.529 9.84 104.321 10.568 104.321 11.544V18H99.7609V4.992H104.105V6.36C104.585 5.832 105.153 5.44 105.809 5.184C106.481 4.912 107.209 4.776 107.993 4.776C108.905 4.776 109.721 4.944 110.441 5.28C111.161 5.616 111.745 6.128 112.193 6.816C112.705 6.16 113.353 5.656 114.137 5.304C114.921 4.952 115.777 4.776 116.705 4.776Z" fill="#747978"/>
</svg>
