<svg width="56" height="21" viewBox="0 0 56 21" fill="none" xmlns="http://www.w3.org/2000/svg">
<path d="M22.578 14.098C21.8033 14.098 21.108 13.9347 20.492 13.608C19.876 13.2813 19.3953 12.8287 19.05 12.25C18.7047 11.662 18.532 10.9993 18.532 10.262C18.532 9.52467 18.7047 8.86667 19.05 8.288C19.3953 7.70933 19.8713 7.25667 20.478 6.93C21.094 6.60333 21.794 6.44 22.578 6.44C23.3153 6.44 23.9593 6.58933 24.51 6.888C25.07 7.18667 25.49 7.616 25.77 8.176L24.426 8.96C24.2113 8.61467 23.9407 8.358 23.614 8.19C23.2967 8.01267 22.9467 7.924 22.564 7.924C21.9107 7.924 21.3693 8.13867 20.94 8.568C20.5107 8.988 20.296 9.55267 20.296 10.262C20.296 10.9713 20.506 11.5407 20.926 11.97C21.3553 12.39 21.9013 12.6 22.564 12.6C22.9467 12.6 23.2967 12.516 23.614 12.348C23.9407 12.1707 24.2113 11.9093 24.426 11.564L25.77 12.348C25.4807 12.908 25.056 13.342 24.496 13.65C23.9453 13.9487 23.306 14.098 22.578 14.098ZM27.2144 3.612H28.9644V14H27.2144V3.612ZM34.6213 14.098C33.8653 14.098 33.1839 13.9347 32.5773 13.608C31.9706 13.2813 31.4946 12.8287 31.1493 12.25C30.8133 11.662 30.6453 10.9993 30.6453 10.262C30.6453 9.52467 30.8133 8.86667 31.1493 8.288C31.4946 7.70933 31.9706 7.25667 32.5773 6.93C33.1839 6.60333 33.8653 6.44 34.6213 6.44C35.3866 6.44 36.0726 6.60333 36.6793 6.93C37.2859 7.25667 37.7573 7.70933 38.0933 8.288C38.4386 8.86667 38.6113 9.52467 38.6113 10.262C38.6113 10.9993 38.4386 11.662 38.0933 12.25C37.7573 12.8287 37.2859 13.2813 36.6793 13.608C36.0726 13.9347 35.3866 14.098 34.6213 14.098ZM34.6213 12.6C35.2653 12.6 35.7973 12.3853 36.2173 11.956C36.6373 11.5267 36.8473 10.962 36.8473 10.262C36.8473 9.562 36.6373 8.99733 36.2173 8.568C35.7973 8.13867 35.2653 7.924 34.6213 7.924C33.9773 7.924 33.4453 8.13867 33.0253 8.568C32.6146 8.99733 32.4093 9.562 32.4093 10.262C32.4093 10.962 32.6146 11.5267 33.0253 11.956C33.4453 12.3853 33.9773 12.6 34.6213 12.6ZM42.5947 14.098C41.9881 14.098 41.3954 14.0187 40.8167 13.86C40.2381 13.7013 39.7761 13.5007 39.4307 13.258L40.1027 11.928C40.4387 12.152 40.8401 12.334 41.3067 12.474C41.7827 12.6047 42.2494 12.67 42.7067 12.67C43.7521 12.67 44.2747 12.3947 44.2747 11.844C44.2747 11.5827 44.1394 11.4007 43.8687 11.298C43.6074 11.1953 43.1827 11.0973 42.5947 11.004C41.9787 10.9107 41.4747 10.8033 41.0827 10.682C40.7001 10.5607 40.3641 10.3507 40.0747 10.052C39.7947 9.744 39.6547 9.31933 39.6547 8.778C39.6547 8.06867 39.9487 7.504 40.5367 7.084C41.1341 6.65467 41.9367 6.44 42.9447 6.44C43.4581 6.44 43.9714 6.50067 44.4847 6.622C44.9981 6.734 45.4181 6.888 45.7447 7.084L45.0727 8.414C44.4381 8.04067 43.7241 7.854 42.9307 7.854C42.4174 7.854 42.0254 7.93333 41.7547 8.092C41.4934 8.24133 41.3627 8.442 41.3627 8.694C41.3627 8.974 41.5027 9.17467 41.7827 9.296C42.0721 9.408 42.5154 9.51533 43.1127 9.618C43.7101 9.71133 44.2001 9.81867 44.5827 9.94C44.9654 10.0613 45.2921 10.2667 45.5627 10.556C45.8427 10.8453 45.9827 11.256 45.9827 11.788C45.9827 12.488 45.6794 13.048 45.0727 13.468C44.4661 13.888 43.6401 14.098 42.5947 14.098ZM54.5178 10.304C54.5178 10.4253 54.5085 10.598 54.4898 10.822H48.6238C48.7265 11.3727 48.9925 11.8113 49.4218 12.138C49.8605 12.4553 50.4018 12.614 51.0458 12.614C51.8671 12.614 52.5438 12.3433 53.0758 11.802L54.0138 12.88C53.6778 13.2813 53.2531 13.5847 52.7398 13.79C52.2265 13.9953 51.6478 14.098 51.0038 14.098C50.1825 14.098 49.4591 13.9347 48.8338 13.608C48.2085 13.2813 47.7231 12.8287 47.3778 12.25C47.0418 11.662 46.8738 10.9993 46.8738 10.262C46.8738 9.534 47.0371 8.88067 47.3638 8.302C47.6998 7.714 48.1618 7.25667 48.7498 6.93C49.3378 6.60333 50.0005 6.44 50.7378 6.44C51.4658 6.44 52.1145 6.60333 52.6838 6.93C53.2625 7.24733 53.7105 7.7 54.0278 8.288C54.3545 8.86667 54.5178 9.53867 54.5178 10.304ZM50.7378 7.84C50.1778 7.84 49.7018 8.008 49.3098 8.344C48.9271 8.67067 48.6938 9.10933 48.6098 9.66H52.8518C52.7771 9.11867 52.5485 8.68 52.1658 8.344C51.7831 8.008 51.3071 7.84 50.7378 7.84Z" fill="white"/>
<path d="M6.15625 15.3125L1 10.1563L6.15625 5" stroke="white" stroke-width="2" stroke-linecap="round" stroke-linejoin="round"/>
<path d="M1.6875 10.1562H12" stroke="white" stroke-width="2" stroke-linecap="round" stroke-linejoin="round"/>
<line y1="20.5" x2="56" y2="20.5" stroke="white"/>
</svg>
