<svg width="72" height="68" viewBox="0 0 72 68" fill="none" xmlns="http://www.w3.org/2000/svg">
<path d="M19.8672 0H7.27087C5.52992 0 4.09619 1.12652 4.09619 2.35543V62.4695C4.09619 63.8008 5.52992 64.8249 7.27087 64.8249H19.7648C21.5057 64.8249 22.9394 63.6984 22.9394 62.4695V2.35543C22.9394 1.02411 21.5057 0 19.8672 0Z" fill="white"/>
<path d="M64.1081 33.1802H51.5118C49.7709 33.1802 48.3372 34.3067 48.3372 35.5356V61.9571C48.3372 63.2884 49.7709 64.3125 51.5118 64.3125H64.0057C65.7467 64.3125 67.1804 63.186 67.1804 61.9571V35.5356C67.1804 34.2043 65.8491 33.1802 64.1081 33.1802Z" fill="white"/>
<path d="M41.9875 19.2531H29.3912C27.6503 19.2531 26.2166 20.3795 26.2166 21.6084V62.4696C26.2166 63.801 27.6503 64.8251 29.3912 64.8251H41.9875C43.7285 64.8251 45.1622 63.6985 45.1622 62.4696V21.6084C45.0598 20.2771 43.6261 19.2531 41.9875 19.2531Z" fill="white"/>
<path d="M69.6381 67.2824H2.35541C1.02409 67.2824 0 66.1558 0 64.9269C0 63.5956 1.1265 62.5715 2.35541 62.5715H69.6381C70.9694 62.5715 71.9935 63.698 71.9935 64.9269C72.0959 66.1558 70.9694 67.2824 69.6381 67.2824Z" fill="white"/>
</svg>
