<svg width="153" height="70" viewBox="0 0 153 70" fill="none" xmlns="http://www.w3.org/2000/svg">
<path d="M3.92426 55.8103H1.43616C1.09228 55.8103 0.809082 56.0328 0.809082 56.2756V68.1496C0.809082 68.4126 1.09228 68.6149 1.43616 68.6149H3.90403C4.24792 68.6149 4.53111 68.3924 4.53111 68.1496V56.2756C4.53111 56.0126 4.24792 55.8103 3.92426 55.8103Z" fill="white"/>
<path d="M12.663 62.3643H10.1749C9.83105 62.3643 9.54785 62.5868 9.54785 62.8295V68.0484C9.54785 68.3114 9.83105 68.5137 10.1749 68.5137H12.6428C12.9867 68.5137 13.2699 68.2912 13.2699 68.0484V62.8295C13.2699 62.5665 13.0069 62.3643 12.663 62.3643Z" fill="white"/>
<path d="M8.29365 59.6133H5.80555C5.46166 59.6133 5.17847 59.8358 5.17847 60.0785V68.1497C5.17847 68.4126 5.46166 68.6149 5.80555 68.6149H8.29365C8.63753 68.6149 8.92073 68.3924 8.92073 68.1497V60.0785C8.9005 59.8156 8.6173 59.6133 8.29365 59.6133Z" fill="white"/>
<path d="M13.7553 69.1003H0.465254C0.202284 69.1003 0 68.8778 0 68.6351C0 68.3721 0.222513 68.1698 0.465254 68.1698H13.7553C14.0183 68.1698 14.2206 68.3923 14.2206 68.6351C14.2408 68.8778 14.0183 69.1003 13.7553 69.1003Z" fill="white"/>
<path d="M12.1572 0H29.6952L22.0489 38.4138H45.5139L42.7628 52.0073H1.75977L12.1572 0Z" fill="white"/>
<path d="M59.2692 50.4092C55.9518 48.8516 53.3828 46.667 51.5824 43.835C49.7821 41.003 48.8718 37.726 48.8718 33.9635C48.8718 29.5537 49.9642 25.5889 52.1488 22.049C54.3335 18.509 57.3273 15.7175 61.1707 13.6946C65.0141 11.6718 69.3632 10.6401 74.218 10.6401C78.6683 10.6401 82.5724 11.429 85.8899 12.9866C89.2073 14.5442 91.7763 16.7289 93.5767 19.5609C95.377 22.3929 96.2873 25.6699 96.2873 29.4323C96.2873 33.8421 95.1949 37.8069 93.0103 41.3469C90.8256 44.8869 87.8116 47.6784 83.9884 49.7012C80.145 51.7241 75.7959 52.7557 70.941 52.7557C66.4706 52.7557 62.5867 51.9668 59.2692 50.4092ZM77.2119 36.9978C78.5672 35.3188 79.2549 33.0532 79.2549 30.2415C79.2549 28.3198 78.729 26.7622 77.6569 25.5889C76.5848 24.4157 75.1283 23.8493 73.2269 23.8493C71.0422 23.8493 69.2823 24.6989 67.9068 26.3779C66.5515 28.0568 65.8637 30.3224 65.8637 33.1342C65.8637 35.0559 66.3896 36.6134 67.4618 37.7867C68.5339 38.9599 69.9903 39.5263 71.8918 39.5263C74.0764 39.5263 75.8363 38.6767 77.2119 36.9978Z" fill="white"/>
<path d="M152.158 11.3886L145.543 44.6239C143.925 52.8973 140.709 58.9456 135.915 62.7688C131.121 66.592 124.85 68.5137 117.082 68.5137C108.566 68.5137 101.688 66.7943 96.4692 63.3352L103.772 51.6229C105.451 52.8973 107.514 53.8885 109.962 54.637C112.429 55.3652 114.897 55.7495 117.385 55.7495C120.582 55.7495 122.968 55.082 124.567 53.7671C126.165 52.4523 127.216 50.4699 127.722 47.8402L127.945 46.7681C125.113 49.3978 121.613 50.7329 117.446 50.7329C114.311 50.7329 111.357 50.0047 108.627 48.5684C105.896 47.1322 103.691 45.0285 102.012 42.2976C100.333 39.5668 99.5035 36.3909 99.5035 32.7903C99.5035 28.7244 100.495 25.0226 102.477 21.6444C104.459 18.2663 107.15 15.5961 110.568 13.6137C113.987 11.6313 117.75 10.6401 121.856 10.6401C128.39 10.6401 132.638 13.0069 134.559 17.7201L135.773 11.4088H152.158V11.3886ZM118.498 35.7638C119.59 36.755 121.067 37.2405 122.948 37.2405C125.173 37.2405 126.974 36.5325 128.309 35.1165C129.644 33.7005 130.332 31.8193 130.332 29.493C130.332 27.9152 129.806 26.6408 128.734 25.6496C127.661 24.6584 126.205 24.173 124.324 24.173C122.099 24.173 120.298 24.881 118.923 26.2969C117.547 27.7129 116.86 29.5942 116.86 31.9204C116.88 33.4983 117.406 34.7727 118.498 35.7638Z" fill="white"/>
<path d="M29.7965 63.3757C30.0999 63.8005 30.2415 64.3062 30.2415 64.8928C30.2415 66.2481 29.6751 67.2798 28.5625 67.9675C27.45 68.6553 25.9935 68.9992 24.2336 68.9992H16.8098L19.3788 56.1339H26.1958C27.6927 56.1339 28.8457 56.3969 29.6346 56.943C30.4235 57.469 30.8079 58.2377 30.8079 59.2086C30.8079 59.9369 30.6056 60.5639 30.201 61.1101C29.7965 61.6563 29.2301 62.0811 28.5018 62.3845C29.0682 62.6272 29.493 62.9509 29.7965 63.3757ZM25.5485 65.6615C25.8115 65.4592 25.9531 65.176 25.9531 64.7917C25.9531 64.5287 25.8519 64.3062 25.6496 64.1646C25.4474 64.023 25.1844 63.9421 24.881 63.9421H22.0894L21.6849 65.9649H24.4764C24.9214 65.9649 25.2653 65.8638 25.5485 65.6615ZM23.0402 59.1682L22.6558 61.0696H24.8607C25.8115 61.0696 26.2969 60.7055 26.2969 59.9571C26.2969 59.6941 26.1958 59.5121 25.9935 59.3705C25.7912 59.2289 25.508 59.1682 25.1439 59.1682H23.0402Z" fill="white"/>
<path d="M34.8132 68.5541C33.822 68.0686 33.0736 67.4011 32.5274 66.5313C32.0015 65.6615 31.7183 64.6703 31.7183 63.5375C31.7183 62.0406 32.0621 60.7055 32.7499 59.5322C33.4377 58.359 34.4086 57.4487 35.6426 56.8014C36.8765 56.1541 38.2723 55.8304 39.8299 55.8304C41.1447 55.8304 42.2977 56.0732 43.2687 56.5587C44.2599 57.0442 45.0083 57.7117 45.5545 58.5815C46.0804 59.4513 46.3636 60.4425 46.3636 61.5753C46.3636 63.0722 46.0198 64.4073 45.332 65.5806C44.6442 66.7538 43.6733 67.6641 42.4393 68.3114C41.2054 68.9587 39.8096 69.2824 38.252 69.2824C36.9372 69.2824 35.7842 69.0396 34.8132 68.5541ZM40.4165 65.2569C40.9222 64.8928 41.3065 64.4275 41.5897 63.8207C41.8527 63.2138 41.9943 62.5665 41.9943 61.8585C41.9943 61.0898 41.7718 60.483 41.3268 60.038C40.8817 59.5929 40.2547 59.3502 39.486 59.3502C38.7982 59.3502 38.2116 59.5322 37.6856 59.8761C37.1799 60.2402 36.7956 60.7055 36.5124 61.3124C36.2494 61.9192 36.1078 62.5665 36.1078 63.2745C36.1078 64.0432 36.3303 64.65 36.7754 65.0951C37.2204 65.5401 37.8475 65.7828 38.6162 65.7828C39.3039 65.7828 39.9108 65.6008 40.4165 65.2569Z" fill="white"/>
<path d="M55.7901 66.7538H50.8745L49.5799 68.9992H45.0083L53.2008 56.1339H57.469L60.5235 68.9992H56.2149L55.7901 66.7538ZM55.1832 63.6387L54.5561 60.3414L52.6546 63.6387H55.1832Z" fill="white"/>
<path d="M73.9955 63.3555C73.3887 64.2051 72.5391 64.8321 71.4265 65.2569L73.5707 68.9992H69.0598L67.2392 65.7626H66.1671L65.5198 68.9992H61.1909L63.7599 56.1339H69.525C71.2242 56.1339 72.5391 56.498 73.4696 57.2465C74.4001 57.9949 74.8653 59.0266 74.8653 60.3617C74.9058 61.4944 74.6024 62.4856 73.9955 63.3555ZM68.898 59.4716H67.4415L66.8346 62.4856H68.6148C69.2216 62.4856 69.6869 62.344 70.0105 62.0406C70.3342 61.7372 70.5162 61.3124 70.5162 60.7864C70.5162 59.9166 69.9701 59.4716 68.898 59.4716Z" fill="white"/>
<path d="M77.475 56.1339H83.2805C84.6358 56.1339 85.7889 56.3564 86.7801 56.8014C87.7713 57.2465 88.5197 57.8736 89.0456 58.7029C89.5716 59.5323 89.8346 60.483 89.8346 61.6158C89.8346 63.0925 89.4907 64.4073 88.8029 65.5199C88.1151 66.6325 87.1644 67.5023 85.9507 68.1091C84.737 68.716 83.3412 69.0194 81.7836 69.0194H74.8857L77.475 56.1339ZM81.9455 65.621C83.058 65.621 83.9278 65.2772 84.5549 64.5692C85.182 63.8612 85.4854 62.9711 85.4854 61.8586C85.4854 61.1101 85.2629 60.5437 84.7977 60.1391C84.3324 59.7346 83.6649 59.5323 82.7951 59.5323H81.1363L79.9226 65.6413H81.9455V65.621Z" fill="white"/>
</svg>
