<svg width="57" height="20" viewBox="0 0 57 20" fill="none" xmlns="http://www.w3.org/2000/svg">
<path d="M5.894 14.14C4.89533 14.14 3.99467 13.9253 3.192 13.496C2.38933 13.0573 1.75933 12.4553 1.302 11.69C0.844667 10.9153 0.616 10.052 0.616 9.1C0.616 8.148 0.844667 7.28933 1.302 6.524C1.75933 5.74933 2.38933 5.14733 3.192 4.718C3.99467 4.27933 4.89533 4.06 5.894 4.06C6.89267 4.06 7.79333 4.27933 8.596 4.718C9.39867 5.14733 10.0287 5.74467 10.486 6.51C10.9433 7.27533 11.172 8.13867 11.172 9.1C11.172 10.0613 10.9433 10.9247 10.486 11.69C10.0287 12.4553 9.39867 13.0573 8.596 13.496C7.79333 13.9253 6.89267 14.14 5.894 14.14ZM5.894 12.544C6.54733 12.544 7.13533 12.3993 7.658 12.11C8.18067 11.8113 8.59133 11.4007 8.89 10.878C9.18867 10.346 9.338 9.75333 9.338 9.1C9.338 8.44667 9.18867 7.85867 8.89 7.336C8.59133 6.804 8.18067 6.39333 7.658 6.104C7.13533 5.80533 6.54733 5.656 5.894 5.656C5.24067 5.656 4.65267 5.80533 4.13 6.104C3.60733 6.39333 3.19667 6.804 2.898 7.336C2.59933 7.85867 2.45 8.44667 2.45 9.1C2.45 9.75333 2.59933 10.346 2.898 10.878C3.19667 11.4007 3.60733 11.8113 4.13 12.11C4.65267 12.3993 5.24067 12.544 5.894 12.544ZM17.0772 6.44C17.8052 6.44 18.4538 6.59867 19.0232 6.916C19.6018 7.23333 20.0545 7.68133 20.3812 8.26C20.7078 8.83867 20.8712 9.506 20.8712 10.262C20.8712 11.018 20.7078 11.69 20.3812 12.278C20.0545 12.8567 19.6018 13.3047 19.0232 13.622C18.4538 13.9393 17.8052 14.098 17.0772 14.098C16.0692 14.098 15.2712 13.762 14.6832 13.09V16.716H12.9332V6.524H14.5992V7.504C14.8885 7.14933 15.2432 6.88333 15.6632 6.706C16.0925 6.52867 16.5638 6.44 17.0772 6.44ZM16.8812 12.6C17.5252 12.6 18.0525 12.3853 18.4632 11.956C18.8832 11.5267 19.0932 10.962 19.0932 10.262C19.0932 9.562 18.8832 8.99733 18.4632 8.568C18.0525 8.13867 17.5252 7.924 16.8812 7.924C16.4612 7.924 16.0832 8.022 15.7472 8.218C15.4112 8.40467 15.1452 8.67533 14.9492 9.03C14.7532 9.38467 14.6552 9.79533 14.6552 10.262C14.6552 10.7287 14.7532 11.1393 14.9492 11.494C15.1452 11.8487 15.4112 12.124 15.7472 12.32C16.0832 12.5067 16.4612 12.6 16.8812 12.6ZM29.5588 10.304C29.5588 10.4253 29.5495 10.598 29.5308 10.822H23.6648C23.7675 11.3727 24.0335 11.8113 24.4628 12.138C24.9015 12.4553 25.4428 12.614 26.0868 12.614C26.9081 12.614 27.5848 12.3433 28.1168 11.802L29.0548 12.88C28.7188 13.2813 28.2941 13.5847 27.7808 13.79C27.2675 13.9953 26.6888 14.098 26.0448 14.098C25.2235 14.098 24.5001 13.9347 23.8748 13.608C23.2495 13.2813 22.7641 12.8287 22.4188 12.25C22.0828 11.662 21.9148 10.9993 21.9148 10.262C21.9148 9.534 22.0781 8.88067 22.4048 8.302C22.7408 7.714 23.2028 7.25667 23.7908 6.93C24.3788 6.60333 25.0415 6.44 25.7788 6.44C26.5068 6.44 27.1555 6.60333 27.7248 6.93C28.3035 7.24733 28.7515 7.7 29.0688 8.288C29.3955 8.86667 29.5588 9.53867 29.5588 10.304ZM25.7788 7.84C25.2188 7.84 24.7428 8.008 24.3508 8.344C23.9681 8.67067 23.7348 9.10933 23.6508 9.66H27.8928C27.8181 9.11867 27.5895 8.68 27.2068 8.344C26.8241 8.008 26.3481 7.84 25.7788 7.84ZM35.4818 6.44C36.4245 6.44 37.1805 6.71533 37.7498 7.266C38.3191 7.81667 38.6038 8.63333 38.6038 9.716V14H36.8538V9.94C36.8538 9.28667 36.6998 8.79667 36.3918 8.47C36.0838 8.134 35.6451 7.966 35.0758 7.966C34.4318 7.966 33.9231 8.162 33.5498 8.554C33.1765 8.93667 32.9898 9.492 32.9898 10.22V14H31.2398V6.524H32.9058V7.49C33.1951 7.14467 33.5591 6.88333 33.9978 6.706C34.4365 6.52867 34.9311 6.44 35.4818 6.44Z" fill="white"/>
<path d="M50.375 14.25L56 8.625L50.375 3" stroke="white" stroke-width="2" stroke-linecap="round" stroke-linejoin="round"/>
<path d="M55.25 8.625H44" stroke="white" stroke-width="2" stroke-linecap="round" stroke-linejoin="round"/>
<line y1="19.5" x2="56" y2="19.5" stroke="white"/>
</svg>
