<svg width="35" height="22" viewBox="0 0 35 22" fill="none" xmlns="http://www.w3.org/2000/svg">
<path d="M33.8988 18.9223H31.911V8.02913C31.911 7.68924 32.1526 7.27918 31.911 7.03884C31.6694 6.7985 31.2589 6.04855 30.9172 6.04855H24.954C24.6123 6.04855 24.2017 6.7985 23.9601 7.03884C23.7185 7.27918 22.9663 7.68924 22.9663 8.02913V18.9223H21.9724V1.09711C21.9724 0.757218 22.214 0.347154 21.9724 0.106817C21.7308 -0.133521 21.3202 0.106817 20.9785 0.106817H14.0215C13.6798 0.106817 13.2692 -0.133521 13.0276 0.106817C12.786 0.347154 13.0276 0.757218 13.0276 1.09711V18.9223H12.0337V11.9903C12.0337 11.6504 11.2815 11.2403 11.0399 11C10.7983 10.7597 10.3877 10.0097 10.046 10.0097H4.08284C3.74115 10.0097 3.33059 10.7597 3.08897 11C2.84736 11.2403 3.08897 11.6504 3.08897 11.9903V18.9223H1.10125C0.759557 18.9223 0.348994 19.6723 0.107383 19.9126C-0.134228 20.1529 0.107383 20.563 0.107383 20.9029C0.107383 21.2428 -0.134228 21.6528 0.107383 21.8932C0.348994 22.1335 0.759557 21.8932 1.10125 21.8932H33.8988C34.2404 21.8932 34.651 22.1335 34.8926 21.8932C35.1342 21.6528 34.8926 21.2428 34.8926 20.9029C34.8926 20.563 35.1342 20.1529 34.8926 19.9126C34.651 19.6723 34.2404 18.9223 33.8988 18.9223ZM5.0767 18.9223V12.9806H9.05216V18.9223H5.0767ZM16.0092 18.9223V3.07768H18.9908V18.9223H16.0092ZM25.9478 18.9223V9.01942H29.9233V18.9223H25.9478Z" fill="white"/>
</svg>
