<svg width="57" height="50" viewBox="0 0 57 50" fill="none" xmlns="http://www.w3.org/2000/svg">
<path d="M2.03571 9.18367H54.9643C56.0886 9.18367 57 8.27003 57 7.14286V2.04082C57 0.913648 56.0886 0 54.9643 0H2.03571C0.911364 0 0 0.913648 0 2.04082V7.14286C0 8.27003 0.911364 9.18367 2.03571 9.18367ZM2.03571 29.5918H54.9643C56.0886 29.5918 57 28.6782 57 27.551V22.449C57 21.3218 56.0886 20.4082 54.9643 20.4082H2.03571C0.911364 20.4082 0 21.3218 0 22.449V27.551C0 28.6782 0.911364 29.5918 2.03571 29.5918ZM2.03571 50H54.9643C56.0886 50 57 49.0864 57 47.9592V42.8571C57 41.73 56.0886 40.8163 54.9643 40.8163H2.03571C0.911364 40.8163 0 41.73 0 42.8571V47.9592C0 49.0864 0.911364 50 2.03571 50Z" fill="white"/>
</svg>
